<?xml version="1.0" standalone="no"?>
<!DOCTYPE svg PUBLIC "-//W3C//DTD SVG 20010904//EN"
 "http://www.w3.org/TR/2001/REC-SVG-20010904/DTD/svg10.dtd">
<svg version="1.0" xmlns="http://www.w3.org/2000/svg"
 width="256.000000pt" height="256.000000pt" viewBox="0 0 256.000000 256.000000"
 preserveAspectRatio="xMidYMid meet">
<metadata>
Created by potrace 1.14, written by Peter Selinger 2001-2017
</metadata>
<g transform="translate(0.000000,256.000000) scale(0.100000,-0.100000)"
fill="#000000" stroke="none">
<path d="M955 2539 c-66 -24 -131 -89 -153 -151 l-17 -48 -57 0 c-105 0 -210
-56 -264 -141 -31 -50 -54 -137 -48 -186 4 -36 1 -41 -34 -68 -146 -110 -188
-329 -95 -495 l26 -47 -44 -40 c-204 -190 -176 -543 56 -690 41 -26 44 -30 44
-73 0 -136 109 -294 233 -337 44 -16 53 -24 78 -73 37 -72 85 -119 157 -155
51 -26 69 -29 148 -30 77 0 98 4 145 26 56 27 89 54 129 105 21 27 23 28 33
10 21 -37 84 -90 138 -114 38 -18 75 -26 127 -28 140 -6 255 61 321 184 24 44
39 62 59 67 124 31 240 182 251 326 4 58 8 72 26 81 45 23 105 80 138 130 119
184 99 405 -52 559 -32 32 -55 61 -50 64 17 10 59 113 66 160 11 77 11 86 -3
149 -19 82 -58 149 -120 206 -47 43 -53 53 -49 81 5 47 -17 129 -47 182 -52
88 -158 147 -266 147 l-58 0 -12 42 c-20 64 -104 142 -176 164 -102 29 -207 4
-275 -67 l-29 -31 -32 31 c-74 74 -194 99 -294 60z m155 -89 c43 -12 93 -62
109 -109 12 -38 15 -231 4 -232 -5 0 -19 -2 -32 -3 -24 -3 -44 11 -73 53 -20
28 -82 50 -127 45 -75 -9 -138 -90 -128 -167 9 -69 54 -114 128 -127 49 -9
114 20 144 65 16 24 28 30 58 31 l38 1 -3 -130 -3 -131 -148 -1 -148 -1 -16
26 c-22 37 -72 68 -118 73 -37 4 -43 8 -77 68 -21 35 -45 69 -53 75 -8 6 -42
12 -76 13 -73 2 -78 4 -75 34 11 93 50 153 122 187 46 23 71 23 185 4 43 -7
55 5 62 68 15 125 109 191 227 158z m465 -9 c49 -22 73 -48 90 -98 14 -38 14
-38 -24 -70 -43 -36 -70 -74 -76 -104 -6 -29 31 -62 57 -53 21 6 57 42 58 56
0 4 24 21 53 38 140 81 310 -18 309 -181 -1 -61 -28 -113 -86 -165 -35 -31
-45 -46 -40 -60 11 -31 25 -44 46 -44 26 0 91 47 115 82 10 16 23 28 30 28 20
0 82 -81 98 -130 19 -57 21 -121 6 -176 -13 -47 -53 -110 -69 -107 -59 13 -70
12 -87 -7 -31 -35 -13 -63 60 -95 206 -87 276 -332 149 -517 -61 -88 -198
-148 -308 -133 -92 12 -116 3 -116 -41 0 -43 42 -59 153 -59 l99 0 -5 -36
c-11 -81 -68 -160 -148 -204 -49 -27 -62 -30 -149 -30 -104 0 -120 -5 -120
-39 0 -31 28 -54 75 -62 22 -3 41 -7 42 -8 8 -7 -57 -71 -95 -94 -61 -35 -164
-38 -228 -4 -52 27 -107 90 -122 141 -8 26 -12 159 -12 418 0 393 -1 402 -41
416 -9 3 -26 -1 -38 -9 -18 -13 -21 -25 -21 -85 0 -38 -3 -70 -7 -70 -5 -1
-37 -2 -72 -3 -71 -2 -80 3 -112 66 -19 37 -19 42 -5 73 45 94 -13 198 -116
211 -47 6 -50 9 -84 69 -19 35 -41 68 -49 75 -9 8 -70 11 -188 11 l-174 0 -25
27 c-78 84 -80 245 -5 344 49 65 86 85 154 87 l58 1 32 -52 c27 -46 29 -54 17
-73 -25 -38 -27 -91 -6 -139 50 -112 196 -121 265 -16 16 25 17 25 164 25
l148 0 3 -80 c2 -43 8 -85 14 -92 13 -16 60 -17 76 -1 9 9 12 118 12 430 0
453 0 456 55 511 48 47 124 59 190 28z m-527 -354 c6 -5 12 -20 12 -32 0 -53
-77 -62 -95 -11 -8 24 -6 31 13 47 22 17 43 16 70 -4z m-220 -386 c5 -30 -15
-51 -49 -51 -28 0 -47 21 -43 48 1 6 2 17 3 22 0 6 11 15 24 19 28 11 61 -8
65 -38z m-72 -408 c24 -42 26 -50 15 -77 -22 -54 -23 -88 -6 -132 20 -53 62
-85 121 -92 43 -4 46 -7 84 -73 22 -37 46 -71 52 -75 7 -5 53 -9 103 -10 49
-1 94 -2 98 -3 4 0 7 -122 7 -269 -1 -259 -2 -270 -24 -318 -60 -127 -204
-179 -328 -117 -56 27 -96 74 -123 145 -18 47 -25 54 -61 64 -133 39 -224 144
-224 261 l0 33 167 -2 167 -3 29 -50 c28 -47 28 -50 13 -77 -20 -33 -23 -106
-6 -139 56 -104 214 -107 267 -6 24 47 21 117 -6 156 -27 37 -85 69 -123 66
-24 -2 -33 7 -69 69 -23 39 -47 74 -53 78 -6 4 -105 8 -221 8 -234 0 -235 0
-310 76 -36 36 -80 116 -87 159 -3 17 3 20 47 23 47 3 51 1 68 -28 21 -34 83
-70 123 -70 70 0 140 61 151 132 7 43 -23 114 -59 139 -66 48 -167 31 -210
-35 -21 -33 -26 -36 -75 -36 l-52 0 16 52 c19 65 64 130 117 169 l40 29 162 0
162 0 28 -47z m178 -119 c22 -21 20 -61 -3 -74 -27 -14 -47 -13 -65 6 -21 21
-20 40 4 64 24 24 43 25 64 4z m-422 -101 c22 -20 23 -41 1 -65 -20 -22 -46
-23 -67 -2 -30 29 -9 84 31 84 9 0 25 -7 35 -17z m492 -606 c22 -16 25 -65 5
-78 -20 -13 -60 -6 -72 12 -5 9 -7 28 -3 42 5 22 15 29 47 36 3 0 13 -5 23
-12z"/>
<path d="M1422 2018 c-54 -54 62 -143 185 -141 120 1 228 86 177 138 -21 21
-51 19 -85 -6 -62 -44 -140 -43 -197 2 -28 22 -62 25 -80 7z"/>
<path d="M1789 1607 c-13 -7 -36 -31 -52 -53 -54 -77 -47 -213 14 -287 35 -43
64 -52 89 -27 23 23 20 45 -14 95 -37 54 -36 117 4 177 25 37 29 50 21 70 -12
32 -32 39 -62 25z"/>
<path d="M1246 1314 c-41 -40 13 -108 60 -76 22 14 27 53 8 73 -21 23 -47 24
-68 3z"/>
<path d="M1672 926 c-84 -29 -142 -112 -142 -204 0 -51 22 -92 51 -92 34 0 49
22 49 70 0 66 14 97 51 118 61 33 73 47 65 75 -9 36 -33 47 -74 33z"/>
</g>
</svg>
